<?xml version="1.0" standalone="no"?>
<!DOCTYPE svg PUBLIC "-//W3C//DTD SVG 20010904//EN"
 "http://www.w3.org/TR/2001/REC-SVG-20010904/DTD/svg10.dtd">
<svg version="1.0" xmlns="http://www.w3.org/2000/svg"
 width="992.000000pt" height="590.000000pt" viewBox="0 0 992.000000 590.000000"
 preserveAspectRatio="xMidYMid meet">

<g transform="translate(0.000000,590.000000) scale(0.100000,-0.100000)"
fill="#000000" stroke="none">
<path d="M3490 3637 c-64 -18 -113 -51 -142 -94 -36 -55 -39 -70 -39 -155 0
-94 33 -201 93 -302 47 -80 161 -203 224 -243 24 -15 43 -30 41 -33 -13 -30
-254 -226 -264 -216 -2 2 -15 46 -28 97 -113 425 -376 732 -732 853 -113 38
-206 49 -370 43 -363 -13 -629 -156 -748 -402 -50 -102 -68 -191 -62 -300 18
-317 236 -553 593 -641 38 -9 70 -18 72 -19 5 -4 -119 -343 -133 -363 -1 -1
-37 11 -80 28 -223 90 -394 72 -511 -52 -64 -68 -88 -126 -88 -213 0 -84 22
-133 84 -189 71 -64 198 -104 295 -92 106 12 240 107 355 251 l50 63 110 -76
c237 -166 386 -231 545 -240 170 -9 299 41 420 162 171 173 248 414 249 783
l1 192 75 52 c41 29 118 95 171 146 l95 92 50 -15 c27 -8 88 -18 135 -22 l86
-7 -50 -90 c-28 -49 -74 -145 -104 -213 -157 -361 -161 -604 -11 -723 52 -41
128 -69 188 -69 98 0 221 63 337 173 40 39 75 68 76 66 2 -2 13 -27 26 -56 28
-61 81 -116 133 -138 110 -45 253 15 421 175 39 39 73 70 73 70 1 0 4 -10 8
-23 9 -39 72 -102 134 -135 33 -18 62 -32 65 -32 3 0 18 53 32 118 38 165 131
329 320 567 82 103 217 245 233 245 6 0 -15 -55 -45 -122 -225 -504 -228 -791
-10 -864 139 -46 261 -1 413 152 l91 92 12 -37 c17 -56 81 -133 141 -168 29
-18 56 -31 58 -28 3 3 9 48 13 100 13 156 76 473 99 498 4 4 10 -20 14 -55 23
-232 153 -441 322 -520 84 -39 196 -50 268 -25 162 55 319 256 433 552 19 49
37 92 39 94 5 6 129 -103 197 -174 113 -117 167 -229 167 -347 0 -135 -75
-218 -194 -218 -52 0 -61 3 -91 33 -60 60 -68 151 -19 222 l23 35 -27 0 c-164
-3 -282 -211 -200 -352 48 -81 138 -124 281 -134 220 -15 404 71 475 224 24
50 27 69 26 157 0 175 -49 269 -237 458 -200 200 -263 311 -255 450 4 89 34
154 100 220 112 112 278 128 380 37 42 -37 43 -40 43 -98 0 -51 -5 -67 -30
-104 -17 -23 -51 -54 -75 -68 -39 -21 -57 -25 -132 -24 l-88 0 0 -49 c0 -102
48 -142 175 -142 145 0 245 58 302 173 25 51 28 67 28 162 0 97 -2 110 -31
170 -79 167 -260 251 -509 237 -163 -10 -281 -57 -375 -149 -150 -148 -175
-412 -56 -579 l36 -49 -49 -103 c-123 -256 -261 -441 -356 -477 -105 -40 -235
52 -325 230 -25 49 -93 229 -87 230 220 35 379 109 490 230 166 178 166 441 1
521 -58 28 -113 21 -197 -23 -62 -33 -190 -151 -275 -253 l-42 -50 14 41 c47
139 64 345 33 414 -30 68 -94 111 -188 124 l-46 7 -7 -63 c-12 -102 -60 -272
-130 -453 -113 -298 -158 -470 -172 -656 -7 -92 -8 -95 -55 -159 -115 -157
-208 -208 -259 -142 -19 24 -21 37 -18 107 3 75 9 93 85 265 105 238 135 333
136 430 1 92 -19 141 -76 178 -55 36 -159 38 -227 5 -102 -51 -227 -179 -350
-359 -33 -48 -60 -83 -60 -78 0 6 12 44 26 85 34 99 43 222 20 283 -29 75
-112 141 -202 160 l-32 7 -12 -68 c-6 -37 -44 -169 -85 -293 -69 -214 -107
-357 -120 -463 -6 -42 -14 -55 -74 -115 -86 -86 -140 -122 -190 -129 -91 -12
-91 28 -1 292 77 226 100 321 100 410 0 152 -88 226 -249 208 l-54 -6 -30 -66
c-80 -177 -147 -429 -162 -611 -4 -46 -13 -89 -20 -95 -180 -151 -317 -217
-345 -166 -30 57 -1 176 101 417 125 298 142 348 143 444 2 158 -41 189 -265
193 -105 2 -154 7 -180 19 l-36 16 30 88 c54 160 49 327 -14 453 -71 142 -242
226 -379 188z m193 -152 c70 -33 109 -131 111 -280 1 -96 -18 -220 -35 -231
-13 -8 -97 84 -133 147 -135 229 -102 440 57 364z m-1202 -58 c301 -103 544
-482 604 -944 l7 -51 -124 -41 c-68 -22 -168 -49 -223 -60 -97 -19 -286 -43
-293 -36 -2 2 27 84 66 182 71 180 147 405 177 523 24 93 17 177 -19 224 -45
60 -150 102 -271 108 l-50 3 -7 -70 c-23 -205 -87 -549 -144 -775 -48 -188
-41 -172 -77 -164 -93 19 -200 96 -256 182 -151 236 -96 625 116 811 51 46
164 105 229 120 75 17 194 12 265 -12z m4785 -505 c21 -13 34 -51 34 -94 0
-75 -64 -154 -212 -263 -78 -58 -167 -103 -280 -143 -74 -26 -86 -29 -81 -14
13 38 184 253 283 355 129 135 214 187 256 159z m-4166 -646 c0 -71 -22 -239
-40 -313 -29 -113 -98 -249 -161 -312 -132 -135 -289 -147 -489 -39 -57 31
-199 117 -238 144 -2 1 24 50 58 109 34 59 86 157 117 219 l55 113 126 6 c154
8 324 36 452 75 123 38 120 38 120 -2z m-1260 -469 c30 -11 65 -27 78 -35 l22
-15 -26 -46 c-47 -80 -129 -175 -188 -216 -48 -33 -67 -40 -120 -43 -55 -4
-65 -1 -92 21 -49 41 -67 134 -43 208 47 138 197 190 369 126z"/>
<path d="M4834 3307 c-44 -21 -102 -94 -119 -151 -45 -151 21 -258 198 -324
32 -12 61 -22 66 -22 4 0 13 31 20 68 14 78 60 189 115 281 29 46 35 65 27 75
-6 7 -43 28 -82 46 -83 38 -175 49 -225 27z"/>
<path d="M3870 1039 l0 -249 30 0 30 0 1 208 1 207 66 -137 c54 -113 70 -138
87 -138 17 0 33 25 87 138 l66 137 1 -208 1 -208 33 3 32 3 3 235 c1 129 1
239 -2 245 -2 6 -23 9 -48 7 l-45 -4 -63 -131 -62 -132 -63 133 c-35 72 -67
132 -72 133 -4 0 -25 2 -45 4 l-38 2 0 -248z"/>
<path d="M5135 1280 c-2 -3 -2 -113 -1 -245 l1 -240 30 0 30 0 3 215 2 215
114 -215 114 -215 41 -3 41 -3 0 245 c0 255 -1 259 -42 248 -16 -4 -18 -24
-20 -196 l-3 -191 -105 194 -105 194 -48 1 c-27 1 -50 -1 -52 -4z"/>
<path d="M6108 1282 l-28 -3 0 -172 c0 -189 -10 -229 -60 -254 -32 -16 -91
-16 -125 -1 -51 23 -59 57 -63 251 l-4 177 -29 0 -29 0 0 -172 c0 -193 8 -234
50 -277 56 -56 181 -65 252 -18 61 41 72 80 76 280 3 98 0 182 -4 186 -5 4
-21 5 -36 3z"/>
<path d="M4572 1038 l3 -243 163 -3 162 -2 0 30 0 30 -130 0 -130 0 0 90 0 89
128 3 127 3 3 28 3 27 -130 0 -131 0 0 70 0 70 130 0 130 0 0 25 0 25 -165 0
-165 0 2 -242z"/>
</g>
</svg>
