<?xml version="1.0" encoding="UTF-8"?>
<svg width="1600px" height="27px" viewBox="0 0 876 15" fill="#DCD4CB" version="1.1" xmlns="http://www.w3.org/2000/svg" xmlns:xlink="http://www.w3.org/1999/xlink">
    <title>Untitled 2</title>
    <g id="Page-1" stroke="none" stroke-width="1" fill-rule="evenodd">
        <path d="M39.535,9.371 C39.629,8.063 38.298,7.647 37.287,7.636 C26.246,7.512 15.214,8.255 4.284,9.842 C3.43,9.876 2.576,9.91 1.722,9.944 C1.386,9.957 1.386,10.267 1.499,10.632 C1.02,10.969 0.661,11.441 0.615,12.079 C0.53,13.259 1.845,13.967 2.863,13.813 C3.098,13.778 3.333,13.75 3.567,13.715 C3.803,13.903 4.042,14.028 4.267,14.02 C15.646,13.569 27.026,13.119 38.406,12.668 C39.016,12.645 38.547,11.663 38.235,11.11 C38.916,10.742 39.482,10.107 39.535,9.371" id="Fill-3" ></path>
        <path d="M103.293,5.946 C102.892,4.777 101.733,3.87 100.506,3.935 C89.461,4.517 78.416,5.1 67.372,5.683 C66.727,5.716 66.329,6.131 66.144,6.659 C65.393,6.79 64.474,7.154 64.724,8.035 C64.935,8.776 65.976,9.125 66.83,9.235 C67.379,9.808 68.137,10.17 68.926,10.129 C77.576,9.673 86.227,9.216 94.878,8.76 C95.936,8.793 96.994,8.806 98.052,8.852 C98.605,8.876 99.602,8.877 100.18,8.48 C100.807,8.447 101.433,8.414 102.06,8.381 C103.264,8.318 103.633,6.937 103.293,5.946" id="Fill-4" ></path>
        <path d="M170.7,1.774 C166.16,2.09 161.621,2.407 157.081,2.723 C149.589,2.852 142.106,3.379 134.663,4.286 C132.871,4.41 131.079,4.535 129.286,4.66 C127.189,4.807 129.263,9.281 131.182,9.147 C144.987,8.185 158.791,7.223 172.596,6.261 C174.693,6.115 172.619,1.64 170.7,1.774" id="Fill-5"></path>
        <path d="M237.102,5.91 C237.582,4.777 236.558,4.305 235.646,4.187 C222.705,2.518 209.652,2.201 196.643,3.138 C195.695,3.207 194.181,3.986 194.092,5.087 C194.088,5.129 194.1,5.16 194.101,5.199 C193.96,5.206 193.821,5.208 193.681,5.215 C193.12,5.244 194.577,6.636 194.677,6.729 C194.824,6.864 195.027,7.064 195.258,7.279 C195.284,7.865 195.872,8.205 196.5,8.239 C196.745,8.371 196.982,8.454 197.192,8.444 C210.299,7.783 223.427,7.667 236.543,8.097 C236.912,8.109 236.394,7.479 235.976,7.027 C236.479,6.75 236.908,6.368 237.102,5.91" id="Fill-6"></path>
        <path d="M300.25,2.28 C284.677,0.752 268.952,1.368 253.538,4.109 C251.573,4.459 253.428,9.022 255.018,8.739 C270.432,5.998 286.157,5.382 301.73,6.909 C303.505,7.083 301.956,2.447 300.25,2.28" id="Fill-7"></path>
        <path d="M370.663,5.552 C370.591,5.489 370.512,5.424 370.433,5.358 C370.445,4.25 369.848,2.946 368.757,2.562 C362.418,0.333 355.753,0.881 349.179,1.257 C342.189,1.657 335.201,2.057 328.211,2.457 C327.354,2.506 327.041,3.366 327.027,4.178 C325.638,4.325 324.248,4.472 322.862,4.648 C322.086,4.747 323.79,6.175 323.901,6.257 C324.618,6.786 325.754,7.588 326.704,7.467 C327.753,7.334 328.804,7.229 329.854,7.112 C336.489,6.732 343.125,6.353 349.761,5.973 C350.174,5.949 350.588,5.923 351.003,5.897 C356.224,5.875 361.445,6.054 366.657,6.443 C367.205,6.588 367.75,6.746 368.289,6.936 C369.06,7.207 369.604,7.068 369.955,6.715 C370.285,6.745 370.616,6.765 370.946,6.796 C371.984,6.896 370.945,5.799 370.663,5.552" id="Fill-8"></path>
        <path d="M445.906,3.495 C430.426,2.105 414.87,1.747 399.344,2.421 C399.007,2.436 398.668,2.512 398.352,2.637 C398.029,2.635 397.706,2.628 397.382,2.626 C396.742,2.624 397.112,2.923 397.514,3.162 C397.13,3.524 396.87,4.006 396.858679,4.613 C396.836,5.874 398.054,6.948 399.265,6.896 C414.791,6.221 430.347,6.58 445.827,7.97 C447.033,8.078 448.29,7.03 448.312376,5.778 C448.337,4.391 447.112,3.604 445.906,3.495" id="Fill-9"></path>
        <path d="M525.505,2.815 C509.129,1.476 492.683,1.091 476.265,1.691 C475.205,1.73 474.279,2.593 474.635,3.715 C475.01,4.898 476.466,5.503 477.581,5.462 C493.595,4.877 509.628,5.225 525.602,6.531 C526.612,6.614 527.914,6.291 527.934168,5.024 C527.952,3.854 526.518,2.898 525.505,2.815" id="Fill-10"></path>
        <path d="M605.486,1.155 C588.36,0.677 571.22,0.818 554.103,1.571 C552.922,1.624 551.896,2.852 552.134,4.045 C552.403,5.406 553.771,5.923 554.973,5.87 C571.655,5.136 588.355,5.004 605.047,5.47 C606.226,5.503 607.561,4.931 607.699,3.572 C607.825,2.342 606.667,1.188 605.486,1.155" id="Fill-11"></path>
        <path d="M684.401,2.053 C683.082,2.087 681.762,2.123 680.442,2.158 C680.447,2.154 680.454,2.151 680.459,2.148 C681.174,1.654 681.12,1.199 680.185,1.188 C677.936,1.159 675.687,1.162 673.438,1.178 C667.104,1.158 660.769,1.165 654.435,1.205 C650.676,1.185 646.916,1.221 643.155,1.308 C641.72,1.325 640.284,1.326 638.849,1.347 C637.745,1.362 636.449,1.699 635.527,2.335 C635.169,2.583 635.004,2.832 635.054,3.015 C634.39,3.209 633.902,3.756 634.291,4.496 C634.356,4.621 634.438,4.734 634.532,4.838 C634.507,5.027 634.669,5.16 634.978,5.206 C635.705,5.672 636.73,5.828 637.47,5.849 C652.274,6.272 667.079,6.695 681.884,7.118 C682.793,7.144 683.727,6.504 683.229,5.557 C682.991,5.103 682.549,4.799 682.044,4.592 C682.893,4.52 683.948,4.246 684.203,3.569 C684.247,3.451 684.26,3.346 684.251,3.25 C684.394,3.172 684.545,3.103 684.676,3.013 C685.363,2.538 685.361,2.027 684.401,2.053" id="Fill-12"></path>
        <path d="M756.43,6.889 C756.031,5.92 754.461,5.258 753.527,5.136 C738.968,3.234 724.266,2.583 709.601,3.202 C708.853,3.167 708.106,3.133 707.359,3.099 C706.308,3.051 706.917,4.175 707.284,4.638 C707.891,5.402 709.064,6.462 710.103,6.51 C724.593,7.174 739.083,7.838 753.572,8.502 C754.132,8.527 754.216,8.221 754.123,7.86 C754.418,7.897 754.713,7.927 755.008,7.965 C755.756,8.063 756.847,7.904 756.43,6.889" id="Fill-13"></path>
        <path d="M805.244,4.876 C804.894,3.604 803.528,2.98 802.334,3.035 C791.991,3.517 781.648,3.998 771.306,4.479 C770.163,4.532 769.245,5.632 769.562,6.788 C769.912,8.06 771.278,8.684 772.472,8.628 C782.814,8.147 793.157,7.666 803.5,7.185 C804.643,7.132 805.561,6.032 805.244,4.876" id="Fill-14"></path>
        <path d="M873.62,6.094 C857.76,5.27 841.9,4.445 826.033,3.621 C824.81,3.558 823.482,4.313 823.3,5.643 C823.126,6.91 824.195,8.024 825.407,8.087 C841.27,8.912 857.13,9.736 872.99,10.56 C874.21,10.624 875.54,9.868 875.73,8.538 C875.9,7.271 874.83,6.157 873.62,6.094" id="Fill-15"></path>
    </g>
</svg>
